<?xml version="1.0" encoding="UTF-8"?>
<svg xmlns="http://www.w3.org/2000/svg" width="1600" height="900" viewBox="0 0 1600 900" role="img" aria-labelledby="title desc">
  <title id="title">Arquitectura - Magic Cert v03</title>
  <desc id="desc">Runtime serverless con delivery controlado por GitHub OIDC y practica con IA</desc>
  <defs>
    <style>
      text { font-family: Arial, Helvetica, sans-serif; }
    </style>
    <filter id="shadow" x="-20%" y="-20%" width="140%" height="140%">
      <feDropShadow dx="0" dy="6" stdDeviation="8" flood-color="#0f172a" flood-opacity="0.14"/>
    </filter>
    <marker id="arrowhead" markerWidth="12" markerHeight="9" refX="11" refY="4.5" orient="auto">
      <polygon points="0 0, 12 4.5, 0 9" fill="#374151"/>
    </marker>
  </defs>
  <rect width="1600" height="900" fill="#0f5f4f"/>
  <rect x="80" y="54" width="1440" height="792" rx="4" fill="#ffffff" filter="url(#shadow)"/>
  <text x="800" y="111" font-size="34" font-weight="900" fill="#111827" text-anchor="middle">Arquitectura - Magic Cert v03</text>
  <text x="800" y="145" font-size="22" font-weight="600" fill="#111827" text-anchor="middle">Runtime serverless con delivery controlado por GitHub OIDC y practica con IA</text>
  
    
    <rect x="130" y="188" width="300" height="430" rx="14" fill="#fbfbff" stroke="#a78bfa" stroke-width="2.5"/>
    <text x="280" y="222" font-size="20" font-weight="800" fill="#374151" text-anchor="middle">USUARIO</text>
    
    <g>
      <rect x="166" y="280" width="228" height="250" rx="12" fill="#fbfbff" stroke="#a78bfa" stroke-width="2"/>
      <text x="280" y="312" font-size="22" font-weight="800" fill="#5146a6" text-anchor="middle">Frontend</text>
      <text x="280" y="338" font-size="15" font-weight="600" fill="#4b5563" text-anchor="middle">React / Vite en S3</text>
      
    <g>
      <rect x="190" y="336" width="74" height="74" rx="10" fill="#4b5563"/>
      <rect x="198" y="344" width="58" height="58" rx="8" fill="none" stroke="#ffffff" stroke-width="3" opacity="0.5"/>
      <text x="227" y="381" font-size="25" font-weight="800" fill="#ffffff" text-anchor="middle">WEB</text>
    </g>
      <circle cx="284" cy="371" r="3.5" fill="#374151" opacity="0.75"/>
<text x="300" y="376" font-size="15" font-weight="500" fill="#374151" text-anchor="start">Practica guiada</text>
<circle cx="284" cy="397" r="3.5" fill="#374151" opacity="0.75"/>
<text x="300" y="402" font-size="15" font-weight="500" fill="#374151" text-anchor="start">Login y perfil</text>
<circle cx="284" cy="423" r="3.5" fill="#374151" opacity="0.75"/>
<text x="300" y="428" font-size="15" font-weight="500" fill="#374151" text-anchor="start">Explicacion con IA</text>
    </g>

    
    <g>
      <rect x="510" y="200" width="248" height="150" rx="12" fill="#f8fff4" stroke="#8ac07a" stroke-width="2"/>
      <text x="634" y="232" font-size="22" font-weight="800" fill="#166534" text-anchor="middle">Amazon S3</text>
      <text x="634" y="258" font-size="15" font-weight="600" fill="#4b5563" text-anchor="middle">Static website</text>
      
    <g>
      <rect x="534" y="256" width="74" height="74" rx="10" fill="#7aa116"/>
      <rect x="542" y="264" width="58" height="58" rx="8" fill="none" stroke="#ffffff" stroke-width="3" opacity="0.5"/>
      <text x="571" y="301" font-size="25" font-weight="800" fill="#ffffff" text-anchor="middle">S3</text>
    </g>
      <circle cx="628" cy="291" r="3.5" fill="#374151" opacity="0.75"/>
<text x="644" y="296" font-size="15" font-weight="500" fill="#374151" text-anchor="start">Assets frontend</text>
<circle cx="628" cy="317" r="3.5" fill="#374151" opacity="0.75"/>
<text x="644" y="322" font-size="15" font-weight="500" fill="#374151" text-anchor="start">Deploy CI/script</text>
    </g>
    
    <g>
      <rect x="820" y="200" width="260" height="150" rx="12" fill="#fbfbff" stroke="#a78bfa" stroke-width="2"/>
      <text x="950" y="232" font-size="22" font-weight="800" fill="#5146a6" text-anchor="middle">API Gateway</text>
      <text x="950" y="258" font-size="15" font-weight="600" fill="#4b5563" text-anchor="middle">REST HTTPS</text>
      
    <g>
      <rect x="844" y="256" width="74" height="74" rx="10" fill="#7d3cdb"/>
      <rect x="852" y="264" width="58" height="58" rx="8" fill="none" stroke="#ffffff" stroke-width="3" opacity="0.5"/>
      <text x="881" y="301" font-size="25" font-weight="800" fill="#ffffff" text-anchor="middle">API</text>
    </g>
      <circle cx="938" cy="291" r="3.5" fill="#374151" opacity="0.75"/>
<text x="954" y="296" font-size="15" font-weight="500" fill="#374151" text-anchor="start">Auth / questions</text>
<circle cx="938" cy="317" r="3.5" fill="#374151" opacity="0.75"/>
<text x="954" y="322" font-size="15" font-weight="500" fill="#374151" text-anchor="start">Progress / AI</text>
    </g>
    
    <g>
      <rect x="650" y="430" width="360" height="168" rx="12" fill="#fffaf0" stroke="#f4b25d" stroke-width="2"/>
      <text x="830" y="462" font-size="22" font-weight="800" fill="#c26700" text-anchor="middle">AWS Lambda</text>
      <text x="830" y="488" font-size="15" font-weight="600" fill="#4b5563" text-anchor="middle">5 funciones Node.js</text>
      
    <g>
      <rect x="674" y="486" width="74" height="74" rx="10" fill="#ff9900"/>
      <rect x="682" y="494" width="58" height="58" rx="8" fill="none" stroke="#ffffff" stroke-width="3" opacity="0.5"/>
      <text x="711" y="531" font-size="25" font-weight="800" fill="#ffffff" text-anchor="middle">λ</text>
    </g>
      <circle cx="768" cy="521" r="3.5" fill="#374151" opacity="0.75"/>
<text x="784" y="526" font-size="15" font-weight="500" fill="#374151" text-anchor="start">questions, auth</text>
<circle cx="768" cy="547" r="3.5" fill="#374151" opacity="0.75"/>
<text x="784" y="552" font-size="15" font-weight="500" fill="#374151" text-anchor="start">profile, progress</text>
<circle cx="768" cy="573" r="3.5" fill="#374151" opacity="0.75"/>
<text x="784" y="578" font-size="15" font-weight="500" fill="#374151" text-anchor="start">ai-practice</text>
    </g>
    
    <g>
      <rect x="1128" y="184" width="330" height="160" rx="12" fill="#f3f8ff" stroke="#7aa7e8" stroke-width="2"/>
      <text x="1293" y="216" font-size="22" font-weight="800" fill="#1d4ed8" text-anchor="middle">DynamoDB + Secrets</text>
      <text x="1293" y="242" font-size="15" font-weight="600" fill="#4b5563" text-anchor="middle">Datos y JWT</text>
      
    <g>
      <rect x="1152" y="240" width="74" height="74" rx="10" fill="#3f74ba"/>
      <rect x="1160" y="248" width="58" height="58" rx="8" fill="none" stroke="#ffffff" stroke-width="3" opacity="0.5"/>
      <text x="1189" y="285" font-size="25" font-weight="800" fill="#ffffff" text-anchor="middle">DB</text>
    </g>
      <circle cx="1246" cy="275" r="3.5" fill="#374151" opacity="0.75"/>
<text x="1262" y="280" font-size="15" font-weight="500" fill="#374151" text-anchor="start">questions / users / progress</text>
<circle cx="1246" cy="301" r="3.5" fill="#374151" opacity="0.75"/>
<text x="1262" y="306" font-size="15" font-weight="500" fill="#374151" text-anchor="start">sessions TTL</text>
<circle cx="1246" cy="327" r="3.5" fill="#374151" opacity="0.75"/>
<text x="1262" y="332" font-size="15" font-weight="500" fill="#374151" text-anchor="start">JWT secret</text>
    </g>
    
    <g>
      <rect x="1128" y="404" width="330" height="166" rx="12" fill="#f3f8ff" stroke="#7aa7e8" stroke-width="2"/>
      <text x="1293" y="436" font-size="22" font-weight="800" fill="#1d4ed8" text-anchor="middle">Bedrock Account</text>
      <text x="1293" y="462" font-size="15" font-weight="600" fill="#4b5563" text-anchor="middle">STS AssumeRole cross-account</text>
      
    <g>
      <rect x="1152" y="460" width="74" height="74" rx="10" fill="#1f77b4"/>
      <rect x="1160" y="468" width="58" height="58" rx="8" fill="none" stroke="#ffffff" stroke-width="3" opacity="0.5"/>
      <text x="1189" y="505" font-size="25" font-weight="800" fill="#ffffff" text-anchor="middle">AI</text>
    </g>
      <circle cx="1246" cy="495" r="3.5" fill="#374151" opacity="0.75"/>
<text x="1262" y="500" font-size="15" font-weight="500" fill="#374151" text-anchor="start">Amazon Nova default</text>
<circle cx="1246" cy="521" r="3.5" fill="#374151" opacity="0.75"/>
<text x="1262" y="526" font-size="15" font-weight="500" fill="#374151" text-anchor="start">Anthropic opcional</text>
<circle cx="1246" cy="547" r="3.5" fill="#374151" opacity="0.75"/>
<text x="1262" y="552" font-size="15" font-weight="500" fill="#374151" text-anchor="start">Payloads auditables</text>
    </g>

    
    <rect x="146" y="622" width="870" height="74" rx="14" fill="#faf7ff" stroke="#c4b5fd" stroke-width="2.5"/>
    <text x="581" y="656" font-size="20" font-weight="800" fill="#374151" text-anchor="middle">CI/CD: GitHub Actions + OIDC + Terraform</text>
    
    <g>
      <rect x="184" y="664" width="30" height="30" rx="10" fill="#24292f"/>
      <rect x="192" y="672" width="14" height="14" rx="8" fill="none" stroke="#ffffff" stroke-width="3" opacity="0.5"/>
      <text x="199" y="687" font-size="18" font-weight="800" fill="#ffffff" text-anchor="middle">GH</text>
    </g>
    <text x="224" y="685" font-size="13" font-weight="800" fill="#374151" text-anchor="start">PR: terraform plan</text>
    
    <g>
      <rect x="438" y="664" width="30" height="30" rx="10" fill="#dd344c"/>
      <rect x="446" y="672" width="14" height="14" rx="8" fill="none" stroke="#ffffff" stroke-width="3" opacity="0.5"/>
      <text x="453" y="687" font-size="18" font-weight="800" fill="#ffffff" text-anchor="middle">IAM</text>
    </g>
    <text x="478" y="685" font-size="13" font-weight="800" fill="#374151" text-anchor="start">Prod: assume apply role</text>
    
    <g>
      <rect x="716" y="664" width="30" height="30" rx="10" fill="#844fba"/>
      <rect x="724" y="672" width="14" height="14" rx="8" fill="none" stroke="#ffffff" stroke-width="3" opacity="0.5"/>
      <text x="731" y="687" font-size="18" font-weight="800" fill="#ffffff" text-anchor="middle">TF</text>
    </g>
    <text x="756" y="685" font-size="13" font-weight="800" fill="#374151" text-anchor="start">Terraform aplica infra</text>

    
    <line x1="430" y1="405" x2="510" y2="276" stroke="#374151" stroke-width="3"  marker-end="url(#arrowhead)"/>
    <rect x="392" y="316.5" width="156" height="28" rx="6" fill="#ffffff" opacity="0.92"/>
<text x="470" y="335.5" font-size="14" font-weight="700" fill="#374151" text-anchor="middle">HTTP</text>
    
    <line x1="758" y1="276" x2="820" y2="276" stroke="#374151" stroke-width="3"  marker-end="url(#arrowhead)"/>
    <rect x="711" y="252" width="156" height="28" rx="6" fill="#ffffff" opacity="0.92"/>
<text x="789" y="271" font-size="14" font-weight="700" fill="#374151" text-anchor="middle">HTTPS</text>
    
    <line x1="950" y1="350" x2="842" y2="430" stroke="#374151" stroke-width="3"  marker-end="url(#arrowhead)"/>
    <rect x="818" y="366" width="156" height="28" rx="6" fill="#ffffff" opacity="0.92"/>
<text x="896" y="385" font-size="14" font-weight="700" fill="#374151" text-anchor="middle">invoca</text>
    
    <line x1="1010" y1="500" x2="1128" y2="264" stroke="#374151" stroke-width="3"  marker-end="url(#arrowhead)"/>
    <rect x="991" y="358" width="156" height="28" rx="6" fill="#ffffff" opacity="0.92"/>
<text x="1069" y="377" font-size="14" font-weight="700" fill="#374151" text-anchor="middle">datos / JWT</text>
    
    <line x1="1010" y1="520" x2="1128" y2="488" stroke="#374151" stroke-width="3"  marker-end="url(#arrowhead)"/>
    <rect x="991" y="480" width="156" height="28" rx="6" fill="#ffffff" opacity="0.92"/>
<text x="1069" y="499" font-size="14" font-weight="700" fill="#374151" text-anchor="middle">STS + IA</text>
    
    <line x1="844" y1="626" x2="820" y2="598" stroke="#64748b" stroke-width="3" stroke-dasharray="9 8" marker-end="url(#arrowhead)"/>
    <rect x="754" y="588" width="156" height="28" rx="6" fill="#ffffff" opacity="0.92"/>
<text x="832" y="607" font-size="14" font-weight="700" fill="#64748b" text-anchor="middle">deploy</text>

    
    <g>
      <rect x="140" y="704" width="900" height="102" rx="12" fill="#fffdf5" stroke="#f3c969" stroke-width="2"/>
      <text x="590" y="732" font-size="18" font-weight="800" fill="#d97706" text-anchor="middle">CARACTERISTICAS DE LA SOLUCION</text>
      
          
    <g>
      <rect x="168" y="743" width="34" height="34" rx="10" fill="#24292f"/>
      <rect x="176" y="751" width="18" height="18" rx="8" fill="none" stroke="#ffffff" stroke-width="3" opacity="0.5"/>
      <text x="185" y="768" font-size="18" font-weight="800" fill="#ffffff" text-anchor="middle">GH</text>
    </g>
          <text x="214" y="759" font-size="13" font-weight="800" fill="#111827" text-anchor="start">OIDC</text>
          <text x="214" y="777" font-size="11" font-weight="500" fill="#4b5563" text-anchor="start">Credenciales</text>
<text x="214" y="792" font-size="11" font-weight="500" fill="#4b5563" text-anchor="start">cortas</text>
        

          
    <g>
      <rect x="348" y="743" width="34" height="34" rx="10" fill="#844fba"/>
      <rect x="356" y="751" width="18" height="18" rx="8" fill="none" stroke="#ffffff" stroke-width="3" opacity="0.5"/>
      <text x="365" y="768" font-size="18" font-weight="800" fill="#ffffff" text-anchor="middle">TF</text>
    </g>
          <text x="394" y="759" font-size="13" font-weight="800" fill="#111827" text-anchor="start">IaC controlada</text>
          <text x="394" y="777" font-size="11" font-weight="500" fill="#4b5563" text-anchor="start">Plan PR / apply</text>
<text x="394" y="792" font-size="11" font-weight="500" fill="#4b5563" text-anchor="start">prod</text>
        

          
    <g>
      <rect x="528" y="743" width="34" height="34" rx="10" fill="#ff9900"/>
      <rect x="536" y="751" width="18" height="18" rx="8" fill="none" stroke="#ffffff" stroke-width="3" opacity="0.5"/>
      <text x="545" y="768" font-size="18" font-weight="800" fill="#ffffff" text-anchor="middle">λ</text>
    </g>
          <text x="574" y="759" font-size="13" font-weight="800" fill="#111827" text-anchor="start">AI Lambda</text>
          <text x="574" y="777" font-size="11" font-weight="500" fill="#4b5563" text-anchor="start">ai-practice</text>
        

          
    <g>
      <rect x="708" y="743" width="34" height="34" rx="10" fill="#dd344c"/>
      <rect x="716" y="751" width="18" height="18" rx="8" fill="none" stroke="#ffffff" stroke-width="3" opacity="0.5"/>
      <text x="725" y="768" font-size="18" font-weight="800" fill="#ffffff" text-anchor="middle">STS</text>
    </g>
          <text x="754" y="759" font-size="13" font-weight="800" fill="#111827" text-anchor="start">Cross-account</text>
          <text x="754" y="777" font-size="11" font-weight="500" fill="#4b5563" text-anchor="start">AssumeRole</text>
        

          
    <g>
      <rect x="888" y="743" width="34" height="34" rx="10" fill="#1f77b4"/>
      <rect x="896" y="751" width="18" height="18" rx="8" fill="none" stroke="#ffffff" stroke-width="3" opacity="0.5"/>
      <text x="905" y="768" font-size="18" font-weight="800" fill="#ffffff" text-anchor="middle">AI</text>
    </g>
          <text x="934" y="759" font-size="13" font-weight="800" fill="#111827" text-anchor="start">Bedrock</text>
          <text x="934" y="777" font-size="11" font-weight="500" fill="#4b5563" text-anchor="start">Amazon Nova</text>
        
    </g>
    
    <g>
      <rect x="1088" y="600" width="372" height="194" rx="10" fill="#f9fafb" stroke="#d1d5db" stroke-width="2"/>
      <text x="1274" y="629" font-size="16" font-weight="800" fill="#374151" text-anchor="middle">FLUJO PRINCIPAL</text>
      
          <circle cx="1116" cy="652" r="9" fill="#2563eb"/>
          <text x="1116" y="656" font-size="11" font-weight="800" fill="#ffffff" text-anchor="middle">1</text>
          <text x="1132" y="657" font-size="13" font-weight="600" fill="#374151" text-anchor="start">Usuario usa S3 frontend</text>
        

          <circle cx="1116" cy="676" r="9" fill="#2563eb"/>
          <text x="1116" y="680" font-size="11" font-weight="800" fill="#ffffff" text-anchor="middle">2</text>
          <text x="1132" y="681" font-size="13" font-weight="600" fill="#374151" text-anchor="start">API Gateway invoca Lambdas</text>
        

          <circle cx="1116" cy="700" r="9" fill="#2563eb"/>
          <text x="1116" y="704" font-size="11" font-weight="800" fill="#ffffff" text-anchor="middle">3</text>
          <text x="1132" y="705" font-size="13" font-weight="600" fill="#374151" text-anchor="start">Datos quedan en DynamoDB</text>
        

          <circle cx="1116" cy="724" r="9" fill="#2563eb"/>
          <text x="1116" y="728" font-size="11" font-weight="800" fill="#ffffff" text-anchor="middle">4</text>
          <text x="1132" y="729" font-size="13" font-weight="600" fill="#374151" text-anchor="start">ai-practice asume rol Bedrock</text>
        

          <circle cx="1116" cy="748" r="9" fill="#2563eb"/>
          <text x="1116" y="752" font-size="11" font-weight="800" fill="#ffffff" text-anchor="middle">5</text>
          <text x="1132" y="753" font-size="13" font-weight="600" fill="#374151" text-anchor="start">GitHub OIDC controla cambios</text>
        
    </g>
    
    <g>
      <rect x="140" y="815" width="1320" height="52" rx="8" fill="#ffffff" stroke="#d1d5db" stroke-width="1.5"/>
      <text x="158" y="846" font-size="12" font-weight="800" fill="#374151" text-anchor="start">SERVICIOS / COMPONENTES</text>
      
          
    <g>
      <rect x="360" y="826" width="30" height="30" rx="10" fill="#24292f"/>
      <rect x="368" y="834" width="14" height="14" rx="8" fill="none" stroke="#ffffff" stroke-width="3" opacity="0.5"/>
      <text x="375" y="849" font-size="18" font-weight="800" fill="#ffffff" text-anchor="middle">GH</text>
    </g>
          <text x="400" y="842" font-size="12" font-weight="800" fill="#111827" text-anchor="start">GitHub</text>
          <text x="400" y="858" font-size="11" font-weight="500" fill="#4b5563" text-anchor="start">Actions</text>
        

          
    <g>
      <rect x="624" y="826" width="30" height="30" rx="10" fill="#dd344c"/>
      <rect x="632" y="834" width="14" height="14" rx="8" fill="none" stroke="#ffffff" stroke-width="3" opacity="0.5"/>
      <text x="639" y="849" font-size="18" font-weight="800" fill="#ffffff" text-anchor="middle">IAM</text>
    </g>
          <text x="664" y="842" font-size="12" font-weight="800" fill="#111827" text-anchor="start">OIDC/IAM</text>
          <text x="664" y="858" font-size="11" font-weight="500" fill="#4b5563" text-anchor="start">Roles</text>
        

          
    <g>
      <rect x="888" y="826" width="30" height="30" rx="10" fill="#ff9900"/>
      <rect x="896" y="834" width="14" height="14" rx="8" fill="none" stroke="#ffffff" stroke-width="3" opacity="0.5"/>
      <text x="903" y="849" font-size="18" font-weight="800" fill="#ffffff" text-anchor="middle">λ</text>
    </g>
          <text x="928" y="842" font-size="12" font-weight="800" fill="#111827" text-anchor="start">Lambda</text>
          <text x="928" y="858" font-size="11" font-weight="500" fill="#4b5563" text-anchor="start">Runtime</text>
        

          
    <g>
      <rect x="1152" y="826" width="30" height="30" rx="10" fill="#dd344c"/>
      <rect x="1160" y="834" width="14" height="14" rx="8" fill="none" stroke="#ffffff" stroke-width="3" opacity="0.5"/>
      <text x="1167" y="849" font-size="18" font-weight="800" fill="#ffffff" text-anchor="middle">STS</text>
    </g>
          <text x="1192" y="842" font-size="12" font-weight="800" fill="#111827" text-anchor="start">STS</text>
          <text x="1192" y="858" font-size="11" font-weight="500" fill="#4b5563" text-anchor="start">AssumeRole</text>
        

          
    <g>
      <rect x="1416" y="826" width="30" height="30" rx="10" fill="#1f77b4"/>
      <rect x="1424" y="834" width="14" height="14" rx="8" fill="none" stroke="#ffffff" stroke-width="3" opacity="0.5"/>
      <text x="1431" y="849" font-size="18" font-weight="800" fill="#ffffff" text-anchor="middle">AI</text>
    </g>
          <text x="1456" y="842" font-size="12" font-weight="800" fill="#111827" text-anchor="start">Bedrock</text>
          <text x="1456" y="858" font-size="11" font-weight="500" fill="#4b5563" text-anchor="start">IA</text>
        
    </g>
  
</svg>